<svg id="Flat" height="512" viewBox="0 0 512 512" width="512" xmlns="http://www.w3.org/2000/svg"><path d="m104 104h240v352h-240z" fill="#f7cc38"/><path d="m344 184h64a16 16 0 0 1 16 16v96a80 80 0 0 1 -80 80v32a112 112 0 0 0 112-112v-112a32 32 0 0 0 -32-32h-80z" fill="#e6be34"/><path d="m104 104h240v48h-240z" fill="#ebd359"/><circle cx="248" cy="352" fill="#fbe36a" r="16"/><circle cx="152" cy="272" fill="#fbe36a" r="16"/><circle cx="280" cy="232" fill="#fbe36a" r="16"/><path d="m104 456h240a0 0 0 0 1 0 0v16a16 16 0 0 1 -16 16h-208a16 16 0 0 1 -16-16v-16a0 0 0 0 1 0 0z" fill="#e6be34"/><g fill="#d4a811"><circle cx="176" cy="216" r="8"/><circle cx="224" cy="280" r="8"/><circle cx="248" cy="184" r="8"/><circle cx="136" cy="352" r="8"/><circle cx="184" cy="408" r="8"/><circle cx="312" cy="288" r="8"/><circle cx="296" cy="400" r="8"/></g><path d="m104 208a24 24 0 0 1 -25.291 23.966c-12.978-.679-22.709-12.328-22.709-25.324v-102.642a47.834 47.834 0 0 1 60.05-46.414c11.223-19.465 44.558-33.586 83.95-33.586s72.727 14.121 83.95 33.586a47.834 47.834 0 0 1 60.05 46.414h-120a24 24 0 0 0 -24 24v32a24 24 0 0 1 -24 24 24 24 0 0 1 -24-24v-16a24 24 0 0 0 -24-24 24 24 0 0 0 -24 24z" fill="#fbe36a"/></svg>