<svg id="Flat" height="512" viewBox="0 0 512 512" width="512" xmlns="http://www.w3.org/2000/svg"><path d="m344 288h-144a72.081 72.081 0 0 1 -72-72v-96a72.081 72.081 0 0 1 72-72h144a72.081 72.081 0 0 1 72 72v96a72.081 72.081 0 0 1 -72 72zm-144-224a56.064 56.064 0 0 0 -56 56v96a56.064 56.064 0 0 0 56 56h144a56.064 56.064 0 0 0 56-56v-96a56.064 56.064 0 0 0 -56-56z" fill="#ad6643"/><path d="m88 208-48 16 16 18.667v77.333a64 64 0 0 0 64 64v-64a32 32 0 0 1 -32-32z" fill="#ad6643"/><path d="m24 456h464v32h-464z" fill="#7a4830"/><path d="m432 344c0-70.692-71.634-128-160-128s-160 57.308-160 128c0 48.221 33.363 90.175 82.6 112h154.8c49.237-21.825 82.6-63.779 82.6-112z" fill="#95573a"/><path d="m376 248h-208s40-48 102.556-48c65.444 0 105.444 48 105.444 48z" fill="#7a4830"/><circle cx="272" cy="184" fill="#95573a" r="16"/><path d="m336 296h128a0 0 0 0 1 0 0v112a48 48 0 0 1 -48 48h-32a48 48 0 0 1 -48-48v-112a0 0 0 0 1 0 0z" fill="#dcdee0"/><path d="m336 320h128v16h-128z" fill="#7a4830"/><path d="m200 40h144v32h-144z" fill="#7a4830"/><path d="m120 424h144a0 0 0 0 1 0 0v30a2 2 0 0 1 -2 2h-140a2 2 0 0 1 -2-2v-30a0 0 0 0 1 0 0z" fill="#ad6643"/><path d="m128 424c40 0 40-32 64-32s32 32 64 32z" fill="#b1bd70"/></svg>