<svg id="Flat" height="512" viewBox="0 0 512 512" width="512" xmlns="http://www.w3.org/2000/svg"><circle cx="136" cy="112" fill="#85bb40" r="88"/><circle cx="136" cy="112" fill="#eb5849" r="56"/><path d="m240 64h192v16h-192z" fill="#e3e4e2"/><path d="m368 464v24h-224v-24l70.93-11.82a30 30 0 0 0 25.07-29.59v-94.59h32v94.59a30 30 0 0 0 25.07 29.59z" fill="#e3e4e2"/><path d="m272 328v47.54c-5.6.33-10.96.46-16 .46s-10.4-.13-16-.46v-47.54z" fill="#c9c9c8"/><path d="m368 200c0 48 16 48 16 88 0 24-32 72-128 72s-128-48-128-72c0-40 16-40 16-88s-16-96-16-96h256s-16 48-16 96z" fill="#e3e4e2"/><path d="m384 288c0 24-32 72-128 72s-128-48-128-72c0-40 16-40 16-88h224c0 48 16 48 16 88z" fill="#eb5849"/><path d="m343.781 265.055a3.959 3.959 0 0 1 -4.694-2.525l-.013-.035-.1-.281c-4.891-13.388-10.974-30.049-10.974-62.214a333.761 333.761 0 0 1 6.281-61.678 3.934 3.934 0 0 1 4.636-3.112l7.972 1.588a3.942 3.942 0 0 1 3.092 4.611 317.633 317.633 0 0 0 -5.981 58.591c0 29.335 5.545 44.522 10 56.726l.1.275q.168.465.329.931a3.943 3.943 0 0 1 -2.75 5.1z" fill="#f3f1f2"/><path d="m347.438 297.916-7.193-3.861a3.916 3.916 0 0 1 -1.776-4.953 36.212 36.212 0 0 0 2.034-6.518 3.917 3.917 0 0 1 4.279-3.063l8.111.917a3.957 3.957 0 0 1 3.414 4.722 52.145 52.145 0 0 1 -3.375 10.815 3.956 3.956 0 0 1 -5.494 1.941z" fill="#f3f1f2"/><path d="m208 152h24a24 24 0 0 1 24 24v24a0 0 0 0 1 0 0h-24a24 24 0 0 1 -24-24v-24a0 0 0 0 1 0 0z" fill="#85bb40"/><path d="m280 152h24a0 0 0 0 1 0 0v24a24 24 0 0 1 -24 24h-24a0 0 0 0 1 0 0v-24a24 24 0 0 1 24-24z" fill="#85bb40" transform="matrix(-1 0 0 -1 560 352)"/><circle cx="296" cy="72" fill="#85bb40" r="32"/><circle cx="360" cy="72" fill="#f8bc1e" r="32"/><g fill="#d4342f"><path d="m176 232h16v16h-16z"/><path d="m280 240h16v16h-16z"/><path d="m232 272h16v16h-16z"/><path d="m160 288h16v16h-16z"/><path d="m296 312h16v16h-16z"/></g></svg>