<svg id="Capa_1" enable-background="new 0 0 512 512" height="512" viewBox="0 0 512 512" width="512" xmlns="http://www.w3.org/2000/svg"><g><g><path clip-rule="evenodd" d="m122.178 71.879c-3.092 6.179-4.823 13.124-4.823 20.522 0 23.329 17.419 42.604 39.973 45.58 1.986.255 4 .397 6.043.397 25.42 0 46.045-20.607 46.045-45.977 0-7.398-1.759-14.343-4.823-20.522l-.823-1.587c-8.964-17.093-29.277-43.738-40.398-60.292-11.433 17.064-32.683 44.872-41.194 61.879z" fill="#ffda8f" fill-rule="evenodd"/></g><g><path clip-rule="evenodd" d="m157.329 137.982c-10.667 16.441-19.944 31.832-26.469 44.928-8.653 17.263-13.504 36.736-13.504 57.344 0 70.978 57.591 128.52 128.63 128.52s128.63-57.542 128.63-128.52c0-20.607-4.851-40.081-13.476-57.344-23.746-47.479-83.125-125.204-115.155-172.91-11.518 17.149-26.554 38.182-42.215 60.292.284.539.567 1.077.823 1.587 3.064 6.179 4.823 13.124 4.823 20.522 0 25.37-20.625 45.977-46.045 45.977-2.042.001-4.056-.141-6.042-.396z" fill="#fff3da" fill-rule="evenodd"/></g><g><path d="m136.136 399.734h-37.136c-5.523 0-10 4.477-10 10v91.586c0 5.523 4.477 10 10 10s10-4.477 10-10v-36.658h24.186c5.523 0 10-4.477 10-10s-4.477-10-10-10h-24.186v-24.928h27.136c5.523 0 10-4.477 10-10s-4.477-10-10-10z"/><path d="m319.776 419.734c5.522 0 10-4.477 10-10s-4.478-10-10-10h-38.556c-5.522 0-10 4.477-10 10v91.416c0 5.523 4.478 10 10 10h38.556c5.522 0 10-4.477 10-10s-4.478-10-10-10h-28.556v-25.722h25.718c5.522 0 10-4.477 10-10s-4.478-10-10-10h-25.718v-25.694z"/><path d="m243.814 433.715c0-18.737-15.864-33.981-35.363-33.981h-24.511c-.01 0-.019.001-.029.001-.009 0-.019-.001-.028-.001-5.523 0-10 4.477-10 10v92.266c0 5.523 4.477 10 10 10s10-4.477 10-10v-30.222l32.426 36.83c1.977 2.245 4.736 3.392 7.509 3.392 2.347 0 4.704-.822 6.604-2.495 4.146-3.649 4.547-9.968.897-14.113l-25.117-28.529c15.782-3.406 27.612-16.97 27.612-33.148zm-35.362 13.98c-3.335 0-9.238.021-14.401.041-.027-5.071-.068-22.71-.083-28.002h14.483c8.328 0 15.363 6.402 15.363 13.981 0 7.578-7.035 13.98-15.362 13.98z"/><path d="m413 491.149h-28.555v-25.722h25.718c5.522 0 10-4.477 10-10s-4.478-10-10-10h-25.718v-25.694h28.555c5.522 0 10-4.477 10-10s-4.478-10-10-10h-38.555c-5.522 0-10 4.477-10 10v91.416c0 5.523 4.478 10 10 10h38.555c5.522 0 10-4.477 10-10s-4.478-10-10-10z"/><path d="m326.659 179.692c-4.908-2.531-10.939-.606-13.472 4.303l-48.825 94.647c-2.532 4.908-.606 10.939 4.302 13.472 1.467.756 3.033 1.115 4.577 1.115 3.623 0 7.119-1.976 8.895-5.417l48.825-94.647c2.532-4.91.606-10.941-4.302-13.473z"/><path d="m165.77 213.467v46.913c0 21.675 17.646 39.31 39.334 39.31 21.705 0 39.363-17.634 39.363-39.31v-46.913c0-21.675-17.658-39.31-39.363-39.31-21.689 0-39.334 17.635-39.334 39.31zm58.697 0v46.913c0 10.647-8.687 19.31-19.363 19.31-10.661 0-19.334-8.662-19.334-19.31v-46.913c0-10.647 8.673-19.31 19.334-19.31 10.677 0 19.363 8.662 19.363 19.31z"/><path d="m280.156 203.915v-6.293c0-5.523-4.478-10-10-10s-10 4.477-10 10v6.293c0 5.523 4.478 10 10 10s10-4.477 10-10z"/><path d="m323.861 259.932c-5.522 0-10 4.477-10 10v6.264c0 5.523 4.478 10 10 10s10-4.477 10-10v-6.264c0-5.523-4.477-10-10-10z"/><path d="m370.079 178.428c-6.604-13.17-16.246-29.422-29.476-49.683-3.019-4.624-9.214-5.927-13.84-2.906-4.625 3.02-5.926 9.216-2.906 13.84 12.811 19.621 22.082 35.228 28.337 47.7 8.242 16.499 12.421 34.288 12.421 52.875 0 65.353-53.217 118.521-118.63 118.521s-118.63-53.168-118.63-118.521c0-18.604 4.187-36.39 12.454-52.884 5.259-10.555 12.723-23.362 22.733-39.013.277.004.551.021.829.021 30.903 0 56.045-25.111 56.045-55.977 0-7.284-1.397-14.341-4.13-21.064l3.827-5.398c9.587-13.516 18.783-26.481 26.88-38.206 7.794 11.264 17.338 24.777 26.16 37.228 3.192 4.505 9.434 5.571 13.94 2.377 4.507-3.193 5.571-9.435 2.378-13.941-12.256-17.297-25.904-36.643-34.184-48.973-1.858-2.765-4.971-4.424-8.302-4.424-3.332 0-6.444 1.659-8.301 4.424-9.242 13.76-20.836 30.138-33.16 47.515-6.198-9.682-13.736-20.31-20.692-30.112-4.527-6.38-8.804-12.407-12.16-17.403-1.857-2.765-4.969-4.424-8.3-4.424-.002 0-.004 0-.006 0-3.333.002-6.446 1.665-8.302 4.434-3.381 5.046-7.703 11.143-12.279 17.598-10.906 15.383-23.267 32.819-29.549 45.372-3.901 7.797-5.88 16.208-5.88 24.998 0 23.168 14.158 43.092 34.281 51.59-8.401 13.419-14.9 24.77-19.717 34.438-9.664 19.28-14.564 40.081-14.564 61.825 0 76.38 62.189 138.521 138.63 138.521 76.44 0 138.63-62.14 138.63-138.521-.001-21.718-4.889-42.515-14.537-61.827zm-242.724-86.027c0-5.655 1.267-11.054 3.766-16.047 5.597-11.185 17.488-27.957 27.979-42.755 1.458-2.056 2.89-4.077 4.279-6.044 1.345 1.904 2.732 3.859 4.143 5.847 10.55 14.867 22.507 31.717 28.113 42.919 2.51 5.062 3.782 10.473 3.782 16.081 0 19.838-16.17 35.977-36.045 35.977-19.86-.001-36.017-16.14-36.017-35.978z"/><path d="m305.647 105.08c5.522 0 10-4.491 10-10.014s-4.478-10-10-10-10 4.477-10 10v.028c0 5.523 4.478 9.986 10 9.986z"/></g></g></svg>