<?xml version="1.0" encoding="UTF-8" standalone="no"?>
<svg
   xmlns:dc="http://purl.org/dc/elements/1.1/"
   xmlns:cc="http://creativecommons.org/ns#"
   xmlns:rdf="http://www.w3.org/1999/02/22-rdf-syntax-ns#"
   xmlns:svg="http://www.w3.org/2000/svg"
   xmlns="http://www.w3.org/2000/svg"
   xmlns:sodipodi="http://sodipodi.sourceforge.net/DTD/sodipodi-0.dtd"
   xmlns:inkscape="http://www.inkscape.org/namespaces/inkscape"
   sodipodi:docname="punch.svg"
   inkscape:version="1.0 (4035a4fb49, 2020-05-01)"
   id="svg8"
   version="1.1"
   viewBox="0 0 210 297"
   height="297mm"
   width="210mm">
  <defs
     id="defs2" />
  <sodipodi:namedview
     showguides="false"
     inkscape:window-maximized="1"
     inkscape:window-y="0"
     inkscape:window-x="0"
     inkscape:window-height="704"
     inkscape:window-width="1366"
     showgrid="false"
     inkscape:document-rotation="0"
     inkscape:current-layer="layer1"
     inkscape:document-units="mm"
     inkscape:cy="252.58733"
     inkscape:cx="250.29402"
     inkscape:zoom="0.70710678"
     inkscape:pageshadow="2"
     inkscape:pageopacity="0.0"
     borderopacity="1.0"
     bordercolor="#666666"
     pagecolor="#ffffff"
     id="base" />
  <metadata
     id="metadata5">
    <rdf:RDF>
      <cc:Work
         rdf:about="">
        <dc:format>image/svg+xml</dc:format>
        <dc:type
           rdf:resource="http://purl.org/dc/dcmitype/StillImage" />
        <dc:title></dc:title>
      </cc:Work>
    </rdf:RDF>
  </metadata>
  <g
     id="layer1"
     inkscape:groupmode="layer"
     inkscape:label="Layer 1">
    <g
       id="g1219">
      <g
         id="g1018"
         style="paint-order:stroke markers fill">
        <g
           id="g1005"
           style="paint-order:stroke markers fill">
          <g
             id="g993"
             style="paint-order:stroke markers fill">
            <g
               id="g982"
               style="paint-order:stroke markers fill">
              <g
                 id="g972"
                 style="paint-order:stroke markers fill">
                <g
                   id="g963"
                   style="paint-order:stroke markers fill">
                  <g
                     id="g955"
                     style="paint-order:stroke markers fill">
                    <g
                       id="g936"
                       style="paint-order:stroke markers fill">
                      <g
                         style="stroke-width:2.5;stroke-miterlimit:4;stroke-dasharray:none;paint-order:stroke markers fill"
                         id="g898" />
                      <path
                         d="m 46.835938,53.722656 c -0.824719,14.370078 7.605808,28.595892 20.426114,35.02903 4.784225,2.441888 9.922189,4.694411 15.316504,5.118345 4.18631,-0.02908 8.471294,0.400235 12.459197,-1.184332 10.714317,-3.200331 20.741707,-10.083403 25.765897,-20.310393 3.08522,-5.877988 4.37346,-12.574154 4.07135,-19.181951 -26.013021,0 -52.026041,0 -78.039062,0 0,0.176434 0,0.352867 0,0.529301 z m 74.464842,3.066406 c -0.35314,12.554265 -8.47522,24.287501 -19.8292,29.508587 C 96.594681,88.585693 91.354852,90.7643 85.860767,90.316637 79.908497,90.775156 74.234923,88.282685 69.030719,85.666561 58.322507,80.302712 50.831205,68.952398 50.421257,56.959663 c 1.783757,-0.395941 3.856883,-0.05845 5.751894,-0.170604 21.709209,2e-6 43.418427,-6e-6 65.127629,3e-6 z"
                         style="color:#000000;font-style:normal;font-variant:normal;font-weight:normal;font-stretch:normal;font-size:medium;line-height:normal;font-family:sans-serif;font-variant-ligatures:normal;font-variant-position:normal;font-variant-caps:normal;font-variant-numeric:normal;font-variant-alternates:normal;font-variant-east-asian:normal;font-feature-settings:normal;font-variation-settings:normal;text-indent:0;text-align:start;text-decoration:none;text-decoration-line:none;text-decoration-style:solid;text-decoration-color:#000000;letter-spacing:normal;word-spacing:normal;text-transform:none;writing-mode:lr-tb;direction:ltr;text-orientation:mixed;dominant-baseline:auto;baseline-shift:baseline;text-anchor:start;white-space:normal;shape-padding:0;shape-margin:0;inline-size:0;clip-rule:nonzero;display:inline;overflow:visible;visibility:visible;opacity:1;isolation:auto;mix-blend-mode:normal;color-interpolation:sRGB;color-interpolation-filters:linearRGB;solid-color:#000000;solid-opacity:1;vector-effect:none;fill:#000000;fill-opacity:1;fill-rule:nonzero;stroke:none;stroke-width:2.53718;stroke-linecap:butt;stroke-linejoin:miter;stroke-miterlimit:4;stroke-dasharray:none;stroke-dashoffset:0;stroke-opacity:1;paint-order:stroke markers fill;color-rendering:auto;image-rendering:auto;shape-rendering:auto;text-rendering:auto;enable-background:accumulate;stop-color:#000000;stop-opacity:1"
                         id="path948" />
                    </g>
                  </g>
                </g>
              </g>
            </g>
          </g>
        </g>
      </g>
      <path
         d="m 80.884099,95.055265 c 3.452383,0 6.904766,0 10.357149,0"
         style="fill:none;stroke:#000000;stroke-width:1.77924;stroke-linecap:round;stroke-linejoin:miter;stroke-miterlimit:4;stroke-dasharray:none;stroke-opacity:1"
         id="path1055" />
      <path
         d="m 56.347712,96.346189 c 19.809973,0 39.619945,0 59.429918,0"
         style="fill:none;stroke:#000000;stroke-width:4.26203;stroke-linecap:round;stroke-linejoin:miter;stroke-miterlimit:4;stroke-dasharray:none;stroke-opacity:1"
         id="path1057" />
      <g
         id="g1062"
         transform="matrix(1.5609915,0.6391312,-0.6391312,1.5609915,-176.13928,-108.37772)">
        <path
           d="m 192.00146,12.212403 c -1.84367,1.097631 -0.79296,3.543983 -1.07016,5.291725 -0.002,1.939053 -0.002,3.878107 -0.002,5.81716 1.6499,-0.148479 1.01137,-1.83216 1.1134,-3.019501 3e-4,-2.18367 0.002,-4.367342 0.009,-6.551003 0.58793,-1.682612 2.1802,2.025964 2.33356,-0.213797 -0.21176,-1.038189 -1.39747,-1.687677 -2.38416,-1.324584 z m -1.07024,17.275151 c 0.002,4.128477 0.001,8.256971 -0.0154,12.385422 -3.31078,-0.0383 -6.68214,0.07815 -9.95404,-0.06059 -2.39259,1.816782 0.58765,5.688315 2.80943,6.480021 3.31302,1.502464 7.66794,-0.743405 8.14392,-4.402637 0.26288,-3.362968 0.0607,-6.754409 0.13204,-10.129887 -0.31515,-1.271886 0.62622,-4.419203 -0.4625,-4.539855 -0.2178,0.08918 -0.4356,0.17835 -0.6534,0.267525 z M 181.1776,42.93296 c 3.2401,0.102887 6.4861,0.03121 9.72909,0.05259 0.0205,3.349047 -3.94865,5.762293 -6.90931,4.167139 -1.6164,-0.754354 -2.80609,-2.410366 -2.81978,-4.219725 z"
           style="color:#000000;font-style:normal;font-variant:normal;font-weight:normal;font-stretch:normal;font-size:medium;line-height:normal;font-family:sans-serif;font-variant-ligatures:normal;font-variant-position:normal;font-variant-caps:normal;font-variant-numeric:normal;font-variant-alternates:normal;font-variant-east-asian:normal;font-feature-settings:normal;font-variation-settings:normal;text-indent:0;text-align:start;text-decoration:none;text-decoration-line:none;text-decoration-style:solid;text-decoration-color:#000000;letter-spacing:normal;word-spacing:normal;text-transform:none;writing-mode:lr-tb;direction:ltr;text-orientation:mixed;dominant-baseline:auto;baseline-shift:baseline;text-anchor:start;white-space:normal;shape-padding:0;shape-margin:0;inline-size:0;clip-rule:nonzero;display:inline;overflow:visible;visibility:visible;opacity:1;isolation:auto;mix-blend-mode:normal;color-interpolation:sRGB;color-interpolation-filters:linearRGB;solid-color:#000000;solid-opacity:1;vector-effect:none;fill:#000000;fill-opacity:1;fill-rule:nonzero;stroke:none;stroke-width:1.11227;stroke-linecap:butt;stroke-linejoin:miter;stroke-miterlimit:4;stroke-dasharray:none;stroke-dashoffset:0;stroke-opacity:1;color-rendering:auto;image-rendering:auto;shape-rendering:auto;text-rendering:auto;enable-background:accumulate;stop-color:#000000;stop-opacity:1"
           id="path1091" />
      </g>
      <path
         d="m 53.538316,63.566622 c 2.526053,8.405966 8.830483,15.425495 16.413658,19.673271"
         style="fill:none;stroke:#000000;stroke-width:1.88;stroke-linecap:round;stroke-linejoin:miter;stroke-miterlimit:4;stroke-dasharray:none;stroke-opacity:1"
         id="path1124" />
      <path
         d="m 66.404272,36.498201 c -0.132013,0.878049 -0.0077,1.903807 -0.0512,2.83227 -0.927007,0.04604 -1.956232,-0.08435 -2.832271,0.0512 -0.404724,1.359228 1.501025,0.405311 2.15235,0.68371 1.376876,-0.215759 0.374249,1.941172 0.682757,2.798188 1.06742,0.499962 0.696482,-0.689097 0.732072,-1.277806 -0.600025,-1.877241 0.982512,-1.571921 2.311267,-1.520382 0.747474,0.465972 0.802354,-1.148361 0.04958,-0.734909 -1.291718,0.0145 -2.970769,0.416337 -2.360842,-1.470806 -0.166993,-0.62823 0.49003,-1.74521 -0.68371,-1.361464 z m 0.0512,2.934659 c 1.461833,-0.206322 -0.21086,1.434185 0,0 z"
         style="color:#000000;font-style:normal;font-variant:normal;font-weight:normal;font-stretch:normal;font-size:medium;line-height:normal;font-family:sans-serif;font-variant-ligatures:normal;font-variant-position:normal;font-variant-caps:normal;font-variant-numeric:normal;font-variant-alternates:normal;font-variant-east-asian:normal;font-feature-settings:normal;font-variation-settings:normal;text-indent:0;text-align:start;text-decoration:none;text-decoration-line:none;text-decoration-style:solid;text-decoration-color:#000000;letter-spacing:normal;word-spacing:normal;text-transform:none;writing-mode:lr-tb;direction:ltr;text-orientation:mixed;dominant-baseline:auto;baseline-shift:baseline;text-anchor:start;white-space:normal;shape-padding:0;shape-margin:0;inline-size:0;clip-rule:nonzero;display:inline;overflow:visible;visibility:visible;opacity:1;isolation:auto;mix-blend-mode:normal;color-interpolation:sRGB;color-interpolation-filters:linearRGB;solid-color:#000000;solid-opacity:1;vector-effect:none;fill:#000000;fill-opacity:1;fill-rule:nonzero;stroke:none;stroke-width:0.631627;stroke-linecap:butt;stroke-linejoin:miter;stroke-miterlimit:4;stroke-dasharray:none;stroke-dashoffset:0;stroke-opacity:1;color-rendering:auto;image-rendering:auto;shape-rendering:auto;text-rendering:auto;enable-background:accumulate;stop-color:#000000;stop-opacity:1"
         id="path1136" />
      <path
         d="m 73.906569,28.176753 c -0.338046,1.118485 0.453652,3.322404 0.469187,1.051744 -0.13839,-0.418814 0.376728,-1.335656 -0.469187,-1.051744 z m 0.469187,2.10232 c -0.361407,1.034739 3.298378,0.387472 1.681363,0 -0.560455,0 -1.120909,0 -1.681363,0 z m 0,0.468606 c -1.035671,-0.361833 -0.388131,3.29925 0,1.681943 0,-0.560648 0,-1.121295 0,-1.681943 z m -0.469187,0 c 0.361246,-1.03482 -3.298934,-0.387344 -1.68209,0 0.560697,0 1.121393,0 1.68209,0 z"
         style="color:#000000;font-style:normal;font-variant:normal;font-weight:normal;font-stretch:normal;font-size:medium;line-height:normal;font-family:sans-serif;font-variant-ligatures:normal;font-variant-position:normal;font-variant-caps:normal;font-variant-numeric:normal;font-variant-alternates:normal;font-variant-east-asian:normal;font-feature-settings:normal;font-variation-settings:normal;text-indent:0;text-align:start;text-decoration:none;text-decoration-line:none;text-decoration-style:solid;text-decoration-color:#000000;letter-spacing:normal;word-spacing:normal;text-transform:none;writing-mode:lr-tb;direction:ltr;text-orientation:mixed;dominant-baseline:auto;baseline-shift:baseline;text-anchor:start;white-space:normal;shape-padding:0;shape-margin:0;inline-size:0;clip-rule:nonzero;display:inline;overflow:visible;visibility:visible;opacity:1;isolation:auto;mix-blend-mode:normal;color-interpolation:sRGB;color-interpolation-filters:linearRGB;solid-color:#000000;solid-opacity:1;vector-effect:none;fill:#000000;fill-opacity:1;fill-rule:nonzero;stroke:none;stroke-width:0.468892;stroke-linecap:butt;stroke-linejoin:miter;stroke-miterlimit:4;stroke-dasharray:none;stroke-dashoffset:0;stroke-opacity:1;color-rendering:auto;image-rendering:auto;shape-rendering:auto;text-rendering:auto;enable-background:accumulate;stop-color:#000000;stop-opacity:1"
         id="path1139" />
      <path
         d="m 84.537307,32.670685 c -0.338046,1.118485 0.453652,3.322404 0.469187,1.051744 -0.13839,-0.418814 0.376728,-1.335656 -0.469187,-1.051744 z m 0.469187,2.10232 c -0.361406,1.034738 3.298377,0.387471 1.681363,0 -0.560455,0 -1.120909,0 -1.681363,0 z m 0,0.468605 c -1.035671,-0.361833 -0.388131,3.299251 0,1.681944 0,-0.560648 0,-1.121296 0,-1.681944 z m -0.469187,0 c 0.361245,-1.034818 -3.298934,-0.387342 -1.68209,0 0.560697,0 1.121393,0 1.68209,0 z"
         style="color:#000000;font-style:normal;font-variant:normal;font-weight:normal;font-stretch:normal;font-size:medium;line-height:normal;font-family:sans-serif;font-variant-ligatures:normal;font-variant-position:normal;font-variant-caps:normal;font-variant-numeric:normal;font-variant-alternates:normal;font-variant-east-asian:normal;font-feature-settings:normal;font-variation-settings:normal;text-indent:0;text-align:start;text-decoration:none;text-decoration-line:none;text-decoration-style:solid;text-decoration-color:#000000;letter-spacing:normal;word-spacing:normal;text-transform:none;writing-mode:lr-tb;direction:ltr;text-orientation:mixed;dominant-baseline:auto;baseline-shift:baseline;text-anchor:start;white-space:normal;shape-padding:0;shape-margin:0;inline-size:0;clip-rule:nonzero;display:inline;overflow:visible;visibility:visible;opacity:1;isolation:auto;mix-blend-mode:normal;color-interpolation:sRGB;color-interpolation-filters:linearRGB;solid-color:#000000;solid-opacity:1;vector-effect:none;fill:#000000;fill-opacity:1;fill-rule:nonzero;stroke:none;stroke-width:0.468892;stroke-linecap:butt;stroke-linejoin:miter;stroke-miterlimit:4;stroke-dasharray:none;stroke-dashoffset:0;stroke-opacity:1;color-rendering:auto;image-rendering:auto;shape-rendering:auto;text-rendering:auto;enable-background:accumulate;stop-color:#000000;stop-opacity:1"
         id="path1141" />
      <path
         d="m 76.962395,39.872672 c -0.153681,1.03998 -0.011,2.250377 -0.06055,3.349612 -1.098868,0.05018 -2.31014,-0.09401 -3.349613,0.06055 -0.477496,1.47495 1.434498,0.566043 2.161702,0.808597 1.875349,-0.568878 0.995031,1.617908 1.187911,2.731498 -0.54539,0.835595 1.260151,0.963322 0.869146,0.137335 0.256465,-1.050004 -0.75021,-3.363149 1.050576,-2.868833 0.686445,-0.294013 2.677931,0.69952 2.299037,-0.690895 -0.532565,-0.51341 -1.979945,0.01089 -2.792048,-0.178252 -1.197771,-0.08444 -0.260535,-2.303882 -0.557565,-3.289062 -0.13499,-0.198431 -0.594346,0.01836 -0.808596,-0.06055 z m 0.06055,3.470703 c 1.707192,-0.222686 -0.249098,1.661339 0,0 z"
         style="color:#000000;font-style:normal;font-variant:normal;font-weight:normal;font-stretch:normal;font-size:medium;line-height:normal;font-family:sans-serif;font-variant-ligatures:normal;font-variant-position:normal;font-variant-caps:normal;font-variant-numeric:normal;font-variant-alternates:normal;font-variant-east-asian:normal;font-feature-settings:normal;font-variation-settings:normal;text-indent:0;text-align:start;text-decoration:none;text-decoration-line:none;text-decoration-style:solid;text-decoration-color:#000000;letter-spacing:normal;word-spacing:normal;text-transform:none;writing-mode:lr-tb;direction:ltr;text-orientation:mixed;dominant-baseline:auto;baseline-shift:baseline;text-anchor:start;white-space:normal;shape-padding:0;shape-margin:0;inline-size:0;clip-rule:nonzero;display:inline;overflow:visible;visibility:visible;opacity:1;isolation:auto;mix-blend-mode:normal;color-interpolation:sRGB;color-interpolation-filters:linearRGB;solid-color:#000000;solid-opacity:1;vector-effect:none;fill:#000000;fill-opacity:1;fill-rule:nonzero;stroke:none;stroke-width:0.747;stroke-linecap:butt;stroke-linejoin:miter;stroke-miterlimit:4;stroke-dasharray:none;stroke-dashoffset:0;stroke-opacity:1;color-rendering:auto;image-rendering:auto;shape-rendering:auto;text-rendering:auto;enable-background:accumulate;stop-color:#000000;stop-opacity:1"
         id="path1144" />
      <path
         d="m 73.878199,63.47653 c 1.630791,0.436969 3.261582,0.873938 4.892372,1.310907 -0.436969,1.630791 -0.873938,3.261583 -1.310907,4.892374 -1.630791,-0.436969 -3.261582,-0.873938 -4.892373,-1.310907 0.436969,-1.630791 0.873939,-3.261583 1.310908,-4.892374 z"
         style="opacity:1;fill:none;fill-opacity:1;fill-rule:evenodd;stroke:#000000;stroke-width:1.15972;stroke-linecap:round;stroke-linejoin:round;stroke-miterlimit:4;stroke-dasharray:none;stroke-dashoffset:83.1496;stroke-opacity:1;paint-order:stroke markers fill"
         id="rect1180" />
      <path
         d="m 67.444183,73.947102 c 1.630791,-0.436969 3.261582,-0.873938 4.892373,-1.310907 0.436969,1.630791 0.873938,3.261582 1.310907,4.892373 -1.630791,0.436969 -3.261582,0.873938 -4.892372,1.310907 -0.43697,-1.630791 -0.873939,-3.261582 -1.310908,-4.892373 z"
         style="opacity:1;fill:none;fill-opacity:1;fill-rule:evenodd;stroke:#000000;stroke-width:1.15972;stroke-linecap:round;stroke-linejoin:round;stroke-miterlimit:4;stroke-dasharray:none;stroke-dashoffset:83.1496;stroke-opacity:1;paint-order:stroke markers fill"
         id="rect1182" />
      <path
         d="m 62.637633,64.998628 c 1.685198,-0.102613 3.370396,-0.205226 5.055593,-0.307839 0.102613,1.685198 0.205226,3.370396 0.30784,5.055593 -1.685198,0.102614 -3.370396,0.205227 -5.055594,0.30784 -0.102613,-1.685198 -0.205226,-3.370396 -0.307839,-5.055594 z"
         style="opacity:1;fill:none;fill-opacity:1;fill-rule:evenodd;stroke:#000000;stroke-width:1.15972;stroke-linecap:round;stroke-linejoin:round;stroke-miterlimit:4;stroke-dasharray:none;stroke-dashoffset:83.1496;stroke-opacity:1;paint-order:stroke markers fill"
         id="rect1184" />
      <path
         d="m 120.95275,61.306489 c -23.327209,0 -46.654418,0 -69.981627,0 1.695835,12.320537 11.397395,22.311879 22.732376,26.666247 3.646634,1.388289 7.412141,2.898807 11.380728,2.537392 3.073772,0.06596 6.164848,0.09672 9.084653,-1.053577 11.91569,-3.243443 22.02285,-12.531228 25.79281,-24.355406 0.40797,-1.242375 0.76519,-2.505463 0.99106,-3.794656 z"
         style="opacity:0.253525;fill:#ff00ff;stroke:none;stroke-width:0.264583px;stroke-linecap:butt;stroke-linejoin:miter;stroke-opacity:1"
         id="path1186" />
    </g>
  </g>
</svg>
